<?xml version="1.0" encoding="UTF-8"?>
<svg width="256" height="256" viewBox="0 0 256 256" xmlns="http://www.w3.org/2000/svg" role="img" aria-label="EcoGestión">
  <defs>
    <linearGradient id="g" x1="0" y1="0" x2="1" y2="1">
      <stop offset="0%" stop-color="#16a34a"/>
      <stop offset="100%" stop-color="#065f46"/>
    </linearGradient>
  </defs>
  <rect width="256" height="256" rx="48" fill="#f8fafc"/>
  <g transform="translate(28,18)">
    <path d="M180 28c-84 10-140 66-140 132 0 34 26 54 60 54 66 0 122-56 132-140-26 22-56 30-84 30-24 0-46-6-68-16 18 36 48 60 88 66-10 8-24 12-38 12-44 0-80-36-80-80 0-50 48-74 130-58z" fill="url(#g)"/>
    <path d="M76 84c18 12 40 20 68 20" stroke="#064e3b" stroke-width="6" stroke-linecap="round" fill="none"/>
  </g>
</svg>